<svg width="32" height="32" viewBox="0 0 32 32" fill="none" xmlns="http://www.w3.org/2000/svg">
<path fill-rule="evenodd" clip-rule="evenodd" d="M0 16C0 7.16344 7.16344 0 16 0C24.8366 0 32 7.16344 32 16C32 24.8366 24.8366 32 16 32C7.16344 32 0 24.8366 0 16Z" fill="#DFD1C0"/>
<path fill-rule="evenodd" clip-rule="evenodd" d="M24.0222 16C24.0222 16.5418 23.9671 17.0828 23.8588 17.6102C23.7531 18.125 23.5966 18.6305 23.3917 19.1137C23.1914 19.5883 22.943 20.0457 22.6527 20.4723C22.3668 20.8961 22.0374 21.2938 21.6755 21.6563C21.3129 22.0172 20.9139 22.3457 20.4902 22.6328C20.0623 22.9211 19.6042 23.1691 19.1293 23.3703C18.6454 23.5742 18.1388 23.7305 17.6244 23.8359C17.0963 23.9445 16.5533 24 16.0108 24C15.4678 24 14.9248 23.9445 14.3975 23.8359C13.8823 23.7305 13.3757 23.5742 12.8922 23.3703C12.4173 23.1691 11.9588 22.9211 11.5309 22.6328C11.1072 22.3457 10.7082 22.0172 10.3464 21.6563C9.98414 21.2938 9.65474 20.8961 9.36839 20.4723C9.07969 20.0457 8.83088 19.5883 8.62982 19.1137C8.42482 18.6305 8.26797 18.125 8.16196 17.6102C8.05478 17.0828 8 16.5418 8 16C8 15.4578 8.05475 14.9156 8.16199 14.3894C8.268 13.8746 8.42485 13.3683 8.62985 12.8859C8.83091 12.411 9.07972 11.9532 9.36842 11.5266C9.65477 11.1024 9.98417 10.7055 10.3464 10.3426C10.7082 9.98162 11.1073 9.65391 11.5309 9.3672C11.9589 9.07773 12.4174 8.82971 12.8922 8.62813C13.3758 8.4238 13.8823 8.26718 14.3975 8.1625C14.9249 8.0547 15.4678 8 16.0108 8C16.5534 8 17.0963 8.0547 17.6244 8.1625C18.1388 8.26721 18.6454 8.42383 19.1293 8.62813C19.6042 8.82968 20.0623 9.07773 20.4903 9.3672C20.9139 9.65391 21.313 9.98162 21.6756 10.3426C22.0374 10.7055 22.3668 11.1024 22.6528 11.5266C22.943 11.9532 23.1914 12.411 23.3917 12.8859C23.5966 13.3683 23.7531 13.8746 23.8588 14.3894C23.9671 14.9156 24.0222 15.4578 24.0222 16ZM13.0917 9.8207C11.1838 10.7203 9.75991 12.4758 9.31591 14.5914C9.49627 14.593 12.3472 14.6289 15.632 13.7574C14.4479 11.6566 13.1828 9.94221 13.0917 9.8207ZM16.1989 14.8094C12.6762 15.8625 9.29596 15.7867 9.17471 15.7821C9.17273 15.8555 9.16922 15.9266 9.16922 16C9.16922 17.7551 9.83228 19.3551 10.9221 20.5649C10.9198 20.5613 12.792 17.2445 16.4841 16.0524C16.5732 16.0227 16.664 15.9961 16.754 15.9703C16.5823 15.5821 16.3948 15.193 16.1989 14.8094ZM20.529 10.8727C19.3245 9.81209 17.7429 9.16878 16.0107 9.16878C15.4549 9.16878 14.9154 9.23597 14.3986 9.36018C14.5011 9.4977 15.7862 11.2 16.9562 13.3453C19.5377 12.3789 20.5121 10.8976 20.529 10.8727ZM17.2203 17.1024C17.2051 17.1074 17.1898 17.1117 17.175 17.1172C13.1383 18.5224 11.8201 21.3542 11.8059 21.3852C12.9673 22.2871 14.4241 22.8312 16.0108 22.8312C16.9582 22.8312 17.8607 22.6386 18.6818 22.2898C18.5805 21.693 18.183 19.6008 17.2203 17.1024ZM19.8338 21.6656C21.37 20.6305 22.461 18.9867 22.7654 17.0828C22.6245 17.0375 20.7105 16.4324 18.5022 16.7859C19.3996 19.2484 19.7642 21.2539 19.8338 21.6656ZM17.4828 14.3633C17.6416 14.6891 17.7954 15.0207 17.9374 15.3539C17.9878 15.4734 18.0371 15.5906 18.0852 15.7078C20.4355 15.4125 22.7509 15.9094 22.8499 15.9297C22.8343 14.3101 22.2541 12.8238 21.2942 11.6602C21.2813 11.6785 20.184 13.2617 17.4828 14.3633Z" fill="#647B64"/>
</svg>
