<svg width="32" height="32" viewBox="0 0 32 32" fill="none" xmlns="http://www.w3.org/2000/svg">
<path fill-rule="evenodd" clip-rule="evenodd" d="M0 16C0 7.16344 7.16344 0 16 0C24.8366 0 32 7.16344 32 16C32 24.8366 24.8366 32 16 32C7.16344 32 0 24.8366 0 16Z" fill="#DFD1C0"/>
<path fill-rule="evenodd" clip-rule="evenodd" d="M16.0007 8C13.8281 8 13.5554 8.0095 12.702 8.04833C11.8504 8.08733 11.269 8.22217 10.7604 8.42C10.2342 8.62434 9.78785 8.89768 9.34318 9.34251C8.89818 9.78719 8.62484 10.2335 8.41984 10.7595C8.2215 11.2684 8.0865 11.8499 8.04817 12.7012C8.01 13.5546 8 13.8274 8 16.0001C8 18.1728 8.00967 18.4446 8.04833 19.2979C8.0875 20.1496 8.22234 20.731 8.42 21.2396C8.62451 21.7658 8.89784 22.2121 9.34268 22.6568C9.78719 23.1018 10.2335 23.3758 10.7594 23.5802C11.2684 23.778 11.8499 23.9128 12.7014 23.9518C13.5547 23.9907 13.8272 24.0002 15.9998 24.0002C18.1726 24.0002 18.4444 23.9907 19.2978 23.9518C20.1495 23.9128 20.7315 23.778 21.2405 23.5802C21.7665 23.3758 22.2121 23.1018 22.6567 22.6568C23.1017 22.2121 23.375 21.7658 23.58 21.2398C23.7767 20.731 23.9117 20.1495 23.9517 19.2981C23.99 18.4448 24 18.1728 24 16.0001C24 13.8274 23.99 13.5547 23.9517 12.7014C23.9117 11.8497 23.7767 11.2684 23.58 10.7597C23.375 10.2335 23.1017 9.78719 22.6567 9.34251C22.2116 8.89751 21.7666 8.62417 21.24 8.42C20.73 8.22217 20.1483 8.08733 19.2966 8.04833C18.4433 8.0095 18.1716 8 15.9983 8H16.0007ZM15.283 9.44166C15.496 9.44133 15.7337 9.44166 16.0007 9.44166C18.1367 9.44166 18.3899 9.44933 19.2334 9.48766C20.0134 9.52333 20.4368 9.65366 20.7188 9.76316C21.0921 9.90816 21.3583 10.0815 21.6381 10.3615C21.9181 10.6415 22.0914 10.9082 22.2368 11.2815C22.3463 11.5632 22.4768 11.9865 22.5123 12.7665C22.5506 13.6099 22.5589 13.8632 22.5589 15.9982C22.5589 18.1333 22.5506 18.3866 22.5123 19.2299C22.4766 20.0099 22.3463 20.4333 22.2368 20.7149C22.0918 21.0883 21.9181 21.3541 21.6381 21.634C21.3581 21.914 21.0923 22.0873 20.7188 22.2323C20.4371 22.3423 20.0134 22.4723 19.2334 22.508C18.3901 22.5463 18.1367 22.5546 16.0007 22.5546C13.8645 22.5546 13.6114 22.5463 12.768 22.508C11.988 22.472 11.5647 22.3416 11.2825 22.2321C10.9092 22.0871 10.6425 21.9138 10.3625 21.6338C10.0825 21.3538 9.90915 21.0878 9.76382 20.7143C9.65432 20.4326 9.52381 20.0093 9.48831 19.2293C9.44998 18.3859 9.44231 18.1326 9.44231 15.9962C9.44231 13.8599 9.44998 13.6079 9.48831 12.7645C9.52398 11.9845 9.65432 11.5612 9.76382 11.2792C9.90882 10.9058 10.0825 10.6392 10.3625 10.3592C10.6425 10.0792 10.9092 9.90583 11.2825 9.7605C11.5645 9.65049 11.988 9.52049 12.768 9.48466C13.506 9.45133 13.792 9.44133 15.283 9.43966V9.44166ZM20.2711 10.77C19.7411 10.77 19.3111 11.1995 19.3111 11.7297C19.3111 12.2597 19.7411 12.6897 20.2711 12.6897C20.8011 12.6897 21.2311 12.2597 21.2311 11.7297C21.2311 11.1997 20.8011 10.77 20.2711 10.77ZM16.0008 11.8917C13.7319 11.8917 11.8924 13.7312 11.8924 16.0001C11.8924 18.2689 13.7319 20.1076 16.0008 20.1076C18.2696 20.1076 20.1085 18.2689 20.1085 16.0001C20.1085 13.7312 18.2696 11.8917 16.0008 11.8917ZM16.0007 13.3334C17.4734 13.3334 18.6674 14.5272 18.6674 16.0001C18.6674 17.4727 17.4734 18.6668 16.0007 18.6668C14.5279 18.6668 13.334 17.4727 13.334 16.0001C13.334 14.5272 14.5279 13.3334 16.0007 13.3334Z" fill="#647B64"/>
</svg>
