<svg width="64" height="64" viewBox="0 0 64 64" fill="none" xmlns="http://www.w3.org/2000/svg">
<path d="M52.0267 17.1198L34.6934 6.93318C33.0134 5.94651 30.9599 5.94651 29.2799 6.93318L11.9466 17.1198C10.3199 18.0798 9.30664 19.8398 9.30664 21.7065V42.2665C9.30664 44.1598 10.3199 45.8932 11.9466 46.8532L29.2799 57.0398C30.9599 58.0265 33.0134 58.0265 34.6934 57.0398L52.0267 46.8532C53.6534 45.8932 54.6667 44.1332 54.6667 42.2665V21.7065C54.6667 19.8398 53.6534 18.0798 52.0267 17.1198ZM46.3734 41.7065L33.04 49.7065C32.72 49.8932 32.3733 49.9998 32 49.9998C31.6267 49.9998 31.28 49.8932 30.96 49.7065L17.6266 41.7065C16.6666 41.1465 16.3733 39.9198 16.9333 38.9598C17.4933 37.9998 18.72 37.7065 19.68 38.2665L31.9733 45.6531L41.4134 39.9732L36.4533 36.9865L34.7201 38.7198C34.3201 39.1198 33.8133 39.3065 33.3066 39.3065C32.8 39.3065 32.2934 39.1198 31.8934 38.7198C31.1201 37.9465 31.1201 36.6665 31.8934 35.8932L32.9067 34.8798L28.1066 31.9998L26.7201 33.3865C26.3201 33.7865 25.8133 33.9732 25.3066 33.9732C24.8 33.9732 24.2934 33.7865 23.8934 33.3865C23.1201 32.6132 23.1201 31.3332 23.8934 30.5598L24.5866 29.8665L17.6266 25.6798C17.0133 25.3065 16.6667 24.6665 16.6667 23.9732C16.6667 23.2798 17.04 22.6132 17.6266 22.2665L30.96 14.2665C31.6 13.8932 32.4 13.8932 33.0133 14.2665L46.3467 22.2665C47.3067 22.8265 47.6 24.0532 47.04 25.0132C46.48 25.9465 45.2533 26.2665 44.2933 25.7065L32 18.3198L22.5601 23.9998L27.52 26.9865L29.2533 25.2532C30.0266 24.4798 31.3067 24.4798 32.0801 25.2532C32.8534 26.0265 32.8534 27.3065 32.0801 28.0798L31.0667 29.0932L35.8667 31.9732L37.2533 30.5865C38.0266 29.8132 39.3067 29.8132 40.0801 30.5865C40.8534 31.3598 40.8534 32.6398 40.0801 33.4132L39.3867 34.1065L46.3467 38.2932C46.96 38.6665 47.3066 39.3065 47.3066 39.9998C47.3066 40.6932 46.96 41.3598 46.3734 41.7065Z" fill="white"/>
</svg>
