<svg width="64" height="64" viewBox="0 0 64 64" fill="none" xmlns="http://www.w3.org/2000/svg">
<path d="M40.053 5.94648C34.7197 5.11981 29.2797 5.11981 23.9464 5.94648C21.7597 6.29314 20.1597 8.15979 20.1597 10.3465V20.1598H10.3464C8.15973 20.1598 6.29308 21.7598 5.94642 23.9465C5.11975 29.2798 5.11975 34.7198 5.94642 40.0531C6.29308 42.2398 8.15973 43.8398 10.3464 43.8398H14.8264C15.573 43.8398 16.1597 43.2531 16.1597 42.5065V37.9198C16.1597 32.4531 20.613 27.9998 26.0797 27.9998H37.9197C38.9864 27.9998 39.8397 27.1464 39.8397 26.0798V17.4931C39.8397 16.7464 40.4264 16.1598 41.1731 16.1598H42.5064C43.2531 16.1598 43.8397 15.5731 43.8397 14.8264V10.3465C43.8397 8.15979 42.2397 6.29314 40.053 5.94648ZM27.5464 14.8797C26.453 14.8797 25.413 13.8398 25.413 12.7464C25.413 11.6264 26.453 10.5865 27.5464 10.5865C28.0797 10.5865 28.6664 10.8265 29.0398 11.1998C29.4398 11.5731 29.7064 12.1864 29.7064 12.7464C29.7064 13.8398 28.6663 14.8797 27.5464 14.8797Z" fill="#647B64"/>
<path d="M58.053 23.9465C57.7063 21.7598 55.8397 20.1598 53.653 20.1598H45.173C44.4263 20.1598 43.8397 20.7464 43.8397 21.4931V26.0798C43.8397 29.3331 41.1997 31.9998 37.9197 31.9998H26.0797C22.7997 31.9998 20.1597 34.6398 20.1597 37.9198V53.6531C20.1597 55.8398 21.7597 57.7064 23.9464 58.0531C29.2797 58.8797 34.7196 58.8797 40.053 58.0531C42.2396 57.7064 43.8397 55.8398 43.8397 53.6531V43.8398H53.653C55.8397 43.8398 57.7063 42.2397 58.053 40.0531C58.8796 34.7197 58.8796 29.2798 58.053 23.9465ZM36.453 53.4131C35.3597 53.4131 34.293 52.3731 34.293 51.2531C34.293 50.1331 35.333 49.0931 36.453 49.0931C36.9597 49.0931 37.573 49.3331 37.9464 49.6798C38.3464 50.0531 38.613 50.6931 38.613 51.2264C38.5864 52.3731 37.5464 53.4131 36.453 53.4131Z" fill="#647B64"/>
</svg>
