<svg width="64" height="64" viewBox="0 0 64 64" fill="none" xmlns="http://www.w3.org/2000/svg">
<path d="M31.9998 5.3331C17.2798 5.3331 5.33313 17.2798 5.33313 31.9998C5.33313 46.7198 17.2798 58.6664 31.9998 58.6664C46.7198 58.6664 58.6665 46.7198 58.6665 31.9998C58.6665 17.2798 46.7198 5.3331 31.9998 5.3331ZM43.9998 37.9998H35.8665L41.1731 45.5198C41.8131 46.4265 41.5998 47.6798 40.6932 48.2931C40.3465 48.5331 39.9464 48.6664 39.5464 48.6664C38.9064 48.6664 38.2931 48.3731 37.9198 47.8131L31.7865 39.1198L25.6531 47.8131C25.2531 48.3731 24.6398 48.6664 24.0265 48.6664C23.6265 48.6664 23.2264 48.5598 22.8798 48.2931C21.9731 47.6531 21.7598 46.3998 22.3998 45.5198L27.7065 37.9998H20.0531C18.9598 37.9998 18.0531 37.0931 18.0531 35.9998C18.0531 34.9064 18.9598 33.9998 20.0531 33.9998H44.0531C45.1464 33.9998 46.0531 34.9064 46.0531 35.9998C46.0531 37.0931 45.0931 37.9998 43.9998 37.9998ZM43.9998 29.9998H19.9998C18.9065 29.9998 17.9998 29.0931 17.9998 27.9998C17.9998 26.9064 18.9065 25.9998 19.9998 25.9998H27.6531L22.3465 18.4797C21.7065 17.5731 21.9198 16.3198 22.8265 15.7064C23.7331 15.0664 24.9865 15.2798 25.5998 16.1865L31.7331 24.8798L37.8665 16.1865C38.5065 15.2798 39.7598 15.0664 40.6398 15.7064C41.5464 16.3464 41.7598 17.5997 41.1198 18.4797L35.8131 25.9998H43.9465C45.0398 25.9998 45.9465 26.9064 45.9465 27.9998C45.9465 29.0931 45.0931 29.9998 43.9998 29.9998Z" fill="#647B64"/>
</svg>
