<svg width="32" height="32" viewBox="0 0 32 32" fill="none" xmlns="http://www.w3.org/2000/svg">
<path fill-rule="evenodd" clip-rule="evenodd" d="M0 16C0 7.16344 7.16344 0 16 0C24.8366 0 32 7.16344 32 16C32 24.8366 24.8366 32 16 32C7.16344 32 0 24.8366 0 16Z" fill="#DFD1C0"/>
<path fill-rule="evenodd" clip-rule="evenodd" d="M15.7689 12.7242L15.8036 13.3298L15.2256 13.2556C13.1215 12.9714 11.2833 12.0075 9.72257 10.3886L8.95955 9.5853L8.76302 10.1785C8.34683 11.5008 8.61273 12.8972 9.47979 13.8364C9.94223 14.3555 9.83818 14.4296 9.04048 14.1207C8.76302 14.0218 8.52024 13.9477 8.49712 13.9847C8.41619 14.0712 8.69365 15.1958 8.91331 15.6407C9.21389 16.2586 9.82662 16.8641 10.4972 17.2225L11.0636 17.5067L10.3931 17.5191C9.74569 17.5191 9.72257 17.5315 9.79194 17.791C10.0232 18.5942 10.9365 19.4469 11.9538 19.8177L12.6706 20.0772L12.0463 20.4727C11.1214 21.0411 10.0347 21.3624 8.94799 21.3871C8.42775 21.3995 8 21.4489 8 21.486C8 21.6096 9.41043 22.3016 10.2313 22.5735C12.6937 23.3768 15.6186 23.0307 17.8152 21.659C19.3759 20.6827 20.9366 18.7425 21.665 16.8641C22.058 15.8631 22.4511 14.0342 22.4511 13.1567C22.4511 12.5883 22.4858 12.5141 23.1332 11.8344C23.5147 11.439 23.8731 11.0065 23.9425 10.8829C24.0581 10.6481 24.0465 10.6481 23.4569 10.8582C22.4742 11.2289 22.3355 11.1795 22.8211 10.6234C23.1794 10.2279 23.6072 9.51115 23.6072 9.30107C23.6072 9.26399 23.4338 9.32578 23.2372 9.437C23.0291 9.56058 22.5667 9.74595 22.2199 9.85718L21.5956 10.0673L21.0291 9.65945C20.717 9.437 20.2777 9.18985 20.0464 9.1157C19.4568 8.94269 18.5551 8.9674 18.0233 9.16513C16.5782 9.72124 15.6649 11.1548 15.7689 12.7242Z" fill="#647B64"/>
</svg>
