<svg width="32" height="32" viewBox="0 0 32 32" fill="none" xmlns="http://www.w3.org/2000/svg">
<path fill-rule="evenodd" clip-rule="evenodd" d="M0 16C0 7.16344 7.16344 0 16 0C24.8366 0 32 7.16344 32 16C32 24.8366 24.8366 32 16 32C7.16344 32 0 24.8366 0 16Z" fill="#DFD1C0"/>
<path fill-rule="evenodd" clip-rule="evenodd" d="M22.251 9.41797C22.9395 9.64795 23.4816 10.3256 23.6656 11.1861C24 12.7458 24 16 24 16C24 16 24 19.2541 23.6656 20.8139C23.4816 21.6744 22.9395 22.352 22.251 22.5821C21.0034 23 16 23 16 23C16 23 10.9966 23 9.74891 22.5821C9.06045 22.352 8.51827 21.6744 8.33427 20.8139C8 19.2541 8 16 8 16C8 16 8 12.7458 8.33427 11.1861C8.51827 10.3256 9.06045 9.64795 9.74891 9.41797C10.9966 9 16 9 16 9C16 9 21.0034 9 22.251 9.41797ZM14.5 13.2608V19.3478L18.5 16.3044L14.5 13.2608Z" fill="#647B64"/>
</svg>
